<?xml version="1.0" encoding="utf-8"?>
<!-- Generator: Adobe Illustrator 23.0.5, SVG Export Plug-In . SVG Version: 6.00 Build 0)  -->
<svg version="1.1" id="Layer_1" xmlns="http://www.w3.org/2000/svg" xmlns:xlink="http://www.w3.org/1999/xlink" x="0px" y="0px"
	 viewBox="0 0 345 271" style="enable-background:new 0 0 345 271;" xml:space="preserve">
<style type="text/css">
	.st0{fill:#8278EA;}
	.st1{fill:url(#SVGID_1_);}
	.st2{fill:url(#SVGID_2_);}
	.st3{fill:url(#SVGID_3_);}
	.st4{fill:url(#SVGID_4_);}
	.st5{fill:#F9C6D6;}
	.st6{fill:url(#SVGID_5_);}
	.st7{fill:url(#SVGID_6_);}
	.st8{fill:#282328;}
	.st9{fill:#FFFFFF;}
	.st10{fill:url(#SVGID_7_);}
	.st11{fill:url(#SVGID_8_);}
	.st12{fill:url(#SVGID_9_);}
	.st13{fill:url(#SVGID_10_);}
	.st14{fill:url(#SVGID_11_);}
	.st15{fill:url(#SVGID_12_);}
	.st16{fill:url(#SVGID_13_);}
	.st17{fill:url(#SVGID_14_);}
	.st18{fill:url(#SVGID_15_);}
	.st19{fill:url(#SVGID_16_);}
	.st20{fill:url(#SVGID_17_);}
	.st21{fill:url(#SVGID_18_);}
	.st22{fill:url(#SVGID_19_);}
	.st23{fill:#473F47;}
	.st24{fill:#F86938;}
	.st25{opacity:0.89;fill:#F2F2F2;enable-background:new    ;}
</style>
<title>6</title>
<g>
	<polygon class="st0" points="90.7,209.6 47.1,208.2 52.5,239.3 83.4,240.3 	"/>
	
		<linearGradient id="SVGID_1_" gradientUnits="userSpaceOnUse" x1="34.7688" y1="2599.1917" x2="93.0639" y2="2732.7041" gradientTransform="matrix(1 3.000000e-02 -3.000000e-02 1 92.7 -2430.95)">
		<stop  offset="1.000000e-02" style="stop-color:#000000"/>
		<stop  offset="8.000000e-02" style="stop-color:#000000;stop-opacity:0.69"/>
		<stop  offset="0.21" style="stop-color:#000000;stop-opacity:0.32"/>
		<stop  offset="1" style="stop-color:#000000;stop-opacity:0"/>
	</linearGradient>
	<polygon class="st1" points="90.7,209.6 47.1,208.2 52.5,239.3 83.4,240.3 	"/>
	<path class="st0" d="M43.5,133.1c-1.1,2.2-1.6,4.6-1.5,7c-0.5,11-0.5,22.3,2.8,32.8c4.8,15.5,16.1,27.9,27.1,39.9
		c-0.8-1.3,1.6-8.3,1.9-10c0.6-3.3,1.4-6.5,2-9.8c1.1-5.2,0-10.6-1.3-15.7c-2.8-11.5-8.3-22.2-16-31.1
		C54.2,141.2,49.1,136.7,43.5,133.1z"/>
	
		<linearGradient id="SVGID_2_" gradientUnits="userSpaceOnUse" x1="-541.5384" y1="2854.8203" x2="-638.6647" y2="2937.5667" gradientTransform="matrix(0.84 0.54 -0.54 0.84 2097.4202 -1938.5)">
		<stop  offset="1.000000e-02" style="stop-color:#000000"/>
		<stop  offset="0.13" style="stop-color:#000000;stop-opacity:0.69"/>
		<stop  offset="0.25" style="stop-color:#000000;stop-opacity:0.32"/>
		<stop  offset="1" style="stop-color:#000000;stop-opacity:0"/>
	</linearGradient>
	<path class="st2" d="M43.5,133.1c-1.1,2.2-1.6,4.6-1.5,7c-0.5,11-0.5,22.3,2.8,32.8c4.8,15.5,16.1,27.9,27.1,39.9
		c-0.8-1.3,1.6-8.3,1.9-10c0.6-3.3,1.4-6.5,2-9.8c1.1-5.2,0-10.6-1.3-15.7c-2.8-11.5-8.3-22.2-16-31.1
		C54.2,141.2,49.1,136.7,43.5,133.1z"/>
	<path class="st0" d="M92.3,170.4c3.7-8.2,7.4-16.6,8.8-25.5c1.4-8.9,0.2-18.6-5.3-25.8c-7,10.7-14.1,21.3-21.2,32
		c-4.1,6.2-8.2,12.5-10.2,19.6c-3.5,12.5-0.4,31.7,7.9,41.8c4.7-4.1,7-13.3,9.5-19L92.3,170.4z"/>
	
		<linearGradient id="SVGID_3_" gradientUnits="userSpaceOnUse" x1="959.5373" y1="2923.1387" x2="1105.8198" y2="2787.9678" gradientTransform="matrix(0.84 0.54 -0.54 0.84 753.7 -2789.6399)">
		<stop  offset="1.000000e-02" style="stop-color:#000000"/>
		<stop  offset="0.13" style="stop-color:#000000;stop-opacity:0.69"/>
		<stop  offset="0.25" style="stop-color:#000000;stop-opacity:0.32"/>
		<stop  offset="1" style="stop-color:#000000;stop-opacity:0"/>
	</linearGradient>
	<path class="st3" d="M92.3,170.4c3.7-8.2,7.4-16.6,8.8-25.5c1.4-8.9,0.2-18.6-5.3-25.8c-7,10.7-14.1,21.3-21.2,32
		c-4.1,6.2-8.2,12.5-10.2,19.6c-3.5,12.5-0.4,31.7,7.9,41.8c4.7-4.1,7-13.3,9.5-19L92.3,170.4z"/>
	<path class="st0" d="M45.9,197.5l46.8,1.5c3.9,0.1,7,3.4,6.9,7.3l0,0c-0.1,3.9-3.4,6.9-7.3,6.8l-46.8-1.4c-3.9-0.1-6.9-3.4-6.9-7.3
		l0,0C38.7,200.5,41.9,197.4,45.9,197.5C45.8,197.4,45.9,197.4,45.9,197.5z"/>
	
		<linearGradient id="SVGID_4_" gradientUnits="userSpaceOnUse" x1="117.4869" y1="2189.7161" x2="156.7296" y2="2225.9932" gradientTransform="matrix(1 0 0 1 -28.56 -2114.3701)">
		<stop  offset="1.000000e-02" style="stop-color:#000000"/>
		<stop  offset="0.13" style="stop-color:#000000;stop-opacity:0.69"/>
		<stop  offset="0.25" style="stop-color:#000000;stop-opacity:0.32"/>
		<stop  offset="1" style="stop-color:#000000;stop-opacity:0"/>
	</linearGradient>
	<path class="st4" d="M112.4,85.5c0,1.5-2.5,3-3.7,3.4c-0.5,0.1-1,0.3-1.5,0.5c-0.5,0.2-0.8,0.7-0.8,1.3c0.1,0.4,0.4,0.8,0.5,1.2
		c0.1,0.4,0,0.8-0.1,1.2c-0.5,1.5-2.3,2.4-2.8,3.9c-2.6-0.3-3.7,0-6.3-0.5l-2.1-1.4l3.2-6c0.4-0.8,0.9-1.6,1.5-2.4
		c0.7-0.7,1.5-1.4,2.3-1.9c2.2-1.4,4.5-2.7,6.9-3.9C109.3,81.2,112.4,85.1,112.4,85.5z"/>
	<path class="st5" d="M118.4,21.9l-0.3,0.1c-1.4,0.4-2.8,0.8-4.3,1.1l-3.3,0.8c-1,0.4-2,0.6-3.1,0.5c0.4-1,1.1-1.8,2.1-2.3
		c0.7-0.3,1.5-0.4,2.2-0.8c1.4-0.8,2.1-2.5,1.6-4c-0.2-0.4-0.4-0.8-0.8-1.1c-1.1-0.6-2.6-0.4-3.5,0.5c-0.9,0.9-1.7,1.9-2.4,2.9
		c-1.4,1.3-2.9,2.5-4.5,3.6c-1.5,1.3-2.6,3.3-2,5.1c0.6,1.9,2.9,1.6,4.6,1.6c2.1,0,4.1-0.3,6.2-0.8c2-0.4,4-1,6-1.5
		c1-0.3,1.9-0.5,2.9-0.7c0.7,0,1.3-0.1,1.9-0.2c0.6-0.3,1-0.7,1.4-1.2c0.7-0.8,1.1-1.7,1.2-2.8c0.1-1.4-0.9-2.8-2.4-2.4
		C120.7,20.8,119.5,21.3,118.4,21.9z"/>
	<path class="st5" d="M110.9,78.4c0.4,0.8,0.4,1.8,0,2.6c-0.2,0.3-0.6,0.5-0.9,0.7c-0.9,0.4-1.9,0.3-2.7-0.3c-0.4-0.4-0.7-1-0.8-1.5
		c-0.7-2.1-1.1-4.2-1.4-6.4c0-0.2,0-0.4,0-0.6c0.1-0.2,0.3-0.4,0.5-0.5c1.1-0.6,2.9-1.1,3.5,0.3C109.8,74.5,110.4,76.5,110.9,78.4z"
		/>
	<path class="st0" d="M107.5,79.4c-0.2,0-0.5,0-0.7,0.1c-0.2,0.1-0.3,0.2-0.4,0.4l-2.4,2.8c-0.5,0.5-1,1.3-0.6,1.9
		c0.2,0.4,0.6,0.6,1.1,0.6c1.2,0.1,2.4-0.1,3.4-0.7c0.8-0.3,1.5-0.7,2.2-1.1c0.5-0.2,1-0.6,1.4-1.1c0.6-0.9,0.7-3-0.3-3.6
		c-0.5-0.3-1-0.1-1.4,0.1C109,79.2,108.3,79.4,107.5,79.4z"/>
	<path class="st5" d="M97.2,88c0,0.2,0,0.3,0,0.5c0.1,0.2,0.2,0.3,0.4,0.4c0.5,0.3,1,0.5,1.6,0.5c0.6,0,1.1-0.2,1.5-0.7
		c0.3-0.4,0.4-0.9,0.5-1.4c0.2-1.1,0.3-2.2,0.3-3.3c0-0.2,0-0.3-0.1-0.4c-0.1-0.1-0.2-0.1-0.3-0.1c-0.9-0.2-2.7-0.7-3.1,0.4
		C97.5,85.2,97.3,86.6,97.2,88z"/>
	<path class="st0" d="M93.5,87.9c-0.8,0-1.5,0.2-2.2,0.4c-0.7,0.3-1.3,0.8-1.6,1.5c-0.1,0.4-0.1,0.7,0,1.1c0.2,0.5,0.7,1,1.2,1.2
		c2.5,1.4,5.4,2,8.3,1.8c0.7,0,1.5-0.2,2-0.7c0.4-0.6,0.6-1.3,0.5-2l0.1-3.4c-0.6,0-1.3,0.2-1.8,0.5c-1.1,0.4-1.5-0.5-2.3-0.7
		C96.2,87.5,94.8,87.6,93.5,87.9z"/>
	
		<linearGradient id="SVGID_5_" gradientUnits="userSpaceOnUse" x1="132.2464" y1="2194.3723" x2="145.9608" y2="2201.1873" gradientTransform="matrix(1 0 0 1 -28.56 -2114.3701)">
		<stop  offset="1.000000e-02" style="stop-color:#000000"/>
		<stop  offset="0.13" style="stop-color:#000000;stop-opacity:0.69"/>
		<stop  offset="0.25" style="stop-color:#000000;stop-opacity:0.32"/>
		<stop  offset="1" style="stop-color:#000000;stop-opacity:0"/>
	</linearGradient>
	<path class="st6" d="M107.5,79.4c-0.2,0-0.5,0-0.7,0.1c-0.2,0.1-0.3,0.2-0.4,0.4l-2.4,2.8c-0.5,0.5-1,1.3-0.6,1.9
		c0.2,0.4,0.6,0.6,1.1,0.6c1.2,0.1,2.4-0.1,3.4-0.7c0.8-0.3,1.5-0.7,2.2-1.1c0.5-0.2,1-0.6,1.4-1.1c0.6-0.9,0.7-3-0.3-3.6
		c-0.5-0.3-1-0.1-1.4,0.1C109,79.2,108.3,79.4,107.5,79.4z"/>
	
		<linearGradient id="SVGID_6_" gradientUnits="userSpaceOnUse" x1="121.0399" y1="2212.4558" x2="129.0773" y2="2194.3716" gradientTransform="matrix(1 0 0 1 -28.56 -2114.3701)">
		<stop  offset="1.000000e-02" style="stop-color:#000000"/>
		<stop  offset="0.13" style="stop-color:#000000;stop-opacity:0.69"/>
		<stop  offset="0.25" style="stop-color:#000000;stop-opacity:0.32"/>
		<stop  offset="1" style="stop-color:#000000;stop-opacity:0"/>
	</linearGradient>
	<path class="st7" d="M93.5,87.9c-0.8,0-1.5,0.2-2.2,0.4c-0.7,0.3-1.3,0.8-1.6,1.5c-0.1,0.4-0.1,0.7,0,1.1c0.2,0.5,0.7,1,1.2,1.2
		c2.5,1.4,5.4,2,8.3,1.8c0.7,0,1.5-0.2,2-0.7c0.4-0.6,0.6-1.3,0.5-2l0.1-3.4c-0.6,0-1.3,0.2-1.8,0.5c-1.1,0.4-1.5-0.5-2.3-0.7
		C96.2,87.5,94.8,87.6,93.5,87.9z"/>
	<path class="st8" d="M102.6,50.3c-1.7,0.2-2.9,1.7-2.7,3.3c0,0,0,0,0,0c0,0.1,0,0.3,0.1,0.4c0,6.9,1.3,13.7,3.8,20.1
		c0.1,0.5,0.4,0.9,0.8,1.1c0.4,0.1,0.8,0.1,1.1,0c1.5-0.4,3-0.9,4.4-1.5l-1.9-13.1c-0.1-0.4-0.1-0.7,0.1-1.1
		c0.1-0.2,0.3-0.5,0.6-0.6c2.2-1.6,4.6-3.1,7-4.4c1.9-1,4.2-2.2,4.7-4.3c0.2-0.7,0.1-1.5-0.4-2.1c-0.3-0.3-0.7-0.5-1.1-0.7
		c-1.3-0.8-2.8-1.3-4.4-1.3c-1.2,0.1-1.6,0.8-2.6,1.3C109.2,48.9,105.6,49.5,102.6,50.3z"/>
	<path class="st9" d="M113.5,36c0-0.1-0.1-0.3-0.2-0.4c-0.1-0.1-0.3-0.1-0.4-0.1c-5.1-0.3-10.1,0.2-15,1.6c0.4,1.3,1,2.6,1.7,3.8
		c2,3.4,3.9,6.9,5.9,10.3c0.5,1.7,2.3,2.7,4.1,2.2c0,0,0,0,0,0l0.3-0.1l7.5-1.5c1.2-0.2-1.2-6.5-1.6-7.6
		C114.9,41.5,114.3,38.7,113.5,36z"/>
	
		<linearGradient id="SVGID_7_" gradientUnits="userSpaceOnUse" x1="151.2728" y1="2127.5071" x2="159.9639" y2="2146.4868" gradientTransform="matrix(1 0 0 1 -28.56 -2114.3701)">
		<stop  offset="1.000000e-02" style="stop-color:#000000"/>
		<stop  offset="0.13" style="stop-color:#000000;stop-opacity:0.69"/>
		<stop  offset="0.25" style="stop-color:#000000;stop-opacity:0.32"/>
		<stop  offset="1" style="stop-color:#000000;stop-opacity:0"/>
	</linearGradient>
	<path class="st10" d="M124.7,23.9l-0.1-0.3c-0.1-0.6-0.1-1.3-0.2-1.8c-0.1-1.3-0.6-2.6-1.4-3.6v-0.1c0,0,4.5-2.9,4.9,0.5
		S124.7,23.9,124.7,23.9z"/>
	<path class="st0" d="M115.6,13l-0.4,2.3c-0.1,0.6-0.6,1.1-1.2,1.2c-2.3-0.4-7.9-1.2-11.9-0.1c-2.2,0.6-4.3,1.3-6.4,2.2
		c-0.8,0.4-1.6-0.6-1.5-1.7l1.5-12.6c0.1-1.1,1.1-1.6,1.8-1c2.9,2.6,9.6,7.8,17,7.8C115.2,11.2,115.8,12.1,115.6,13z"/>
	
		<ellipse transform="matrix(7.880702e-02 -0.9969 0.9969 7.880702e-02 77.4058 105.2597)" class="st0" cx="95.7" cy="10.7" rx="7.9" ry="3.8"/>
	
		<linearGradient id="SVGID_8_" gradientUnits="userSpaceOnUse" x1="-1555.489" y1="2117.9431" x2="-1500.3894" y2="2141.4136" gradientTransform="matrix(-1.0032 9.441706e-04 9.441706e-04 1.0032 -1458.3433 -2116.1052)">
		<stop  offset="1.000000e-02" style="stop-color:#000000"/>
		<stop  offset="8.000000e-02" style="stop-color:#000000;stop-opacity:0.69"/>
		<stop  offset="0.21" style="stop-color:#000000;stop-opacity:0.32"/>
		<stop  offset="1" style="stop-color:#000000;stop-opacity:0"/>
	</linearGradient>
	<path class="st11" d="M91.9,10.4c0.3-4.3,2.3-7.7,4.4-7.6c2.1,0.2,3.5,3.8,3.1,8.2c-0.3,4.3-2.3,7.7-4.4,7.6
		C93,18.5,91.6,14.8,91.9,10.4z"/>
	<path class="st0" d="M107.9,22.7l0.4-1.2c0.2-0.6,0.8-0.9,1.3-0.7l1.2,0.4c0.6,0.2,0.9,0.8,0.7,1.3l-0.4,1.2
		c-0.2,0.6-0.8,0.9-1.3,0.7l-1.2-0.4C108,23.9,107.7,23.3,107.9,22.7z"/>
	<polygon class="st0" points="165.5,195.8 180.6,231.2 227.4,239 212.3,197.4 	"/>
	
		<linearGradient id="SVGID_9_" gradientUnits="userSpaceOnUse" x1="287.8769" y1="2298.353" x2="65.0335" y2="2416.6621" gradientTransform="matrix(1 0 0 1 -28.56 -2114.3701)">
		<stop  offset="1.000000e-02" style="stop-color:#000000"/>
		<stop  offset="8.000000e-02" style="stop-color:#000000;stop-opacity:0.69"/>
		<stop  offset="0.21" style="stop-color:#000000;stop-opacity:0.32"/>
		<stop  offset="1" style="stop-color:#000000;stop-opacity:0"/>
	</linearGradient>
	<polygon class="st12" points="165.5,195.8 180.6,231.2 227.4,239 212.3,197.4 	"/>
	
		<linearGradient id="SVGID_10_" gradientUnits="userSpaceOnUse" x1="297.1599" y1="2315.8298" x2="74.3165" y2="2434.1389" gradientTransform="matrix(1 0 0 1 -28.56 -2114.3701)">
		<stop  offset="1.000000e-02" style="stop-color:#000000"/>
		<stop  offset="8.000000e-02" style="stop-color:#000000;stop-opacity:0.69"/>
		<stop  offset="0.21" style="stop-color:#000000;stop-opacity:0.32"/>
		<stop  offset="1" style="stop-color:#000000;stop-opacity:0"/>
	</linearGradient>
	<polygon class="st13" points="180.6,231.2 150.4,239 212.1,256.7 227.4,239 	"/>
	<polygon class="st0" points="180.6,231.2 150.4,239 204.8,265.2 227.4,239 	"/>
	
		<linearGradient id="SVGID_11_" gradientUnits="userSpaceOnUse" x1="298.1166" y1="2317.6343" x2="75.2733" y2="2435.9314" gradientTransform="matrix(1 0 0 1 -28.56 -2114.3701)">
		<stop  offset="1.000000e-02" style="stop-color:#000000"/>
		<stop  offset="8.000000e-02" style="stop-color:#000000;stop-opacity:0.69"/>
		<stop  offset="0.21" style="stop-color:#000000;stop-opacity:0.32"/>
		<stop  offset="1" style="stop-color:#000000;stop-opacity:0"/>
	</linearGradient>
	<polygon class="st14" points="180.6,231.2 150.4,239 204.8,265.2 227.4,239 	"/>
	<polygon class="st0" points="156.6,195.8 171.7,231.2 218.6,239 203.5,197.4 	"/>
	
		<linearGradient id="SVGID_12_" gradientUnits="userSpaceOnUse" x1="200.2334" y1="2288.2913" x2="232.3345" y2="2375.1167" gradientTransform="matrix(1 0 0 1 -28.56 -2114.3701)">
		<stop  offset="1.000000e-02" style="stop-color:#000000"/>
		<stop  offset="8.000000e-02" style="stop-color:#000000;stop-opacity:0.69"/>
		<stop  offset="0.21" style="stop-color:#000000;stop-opacity:0.32"/>
		<stop  offset="1" style="stop-color:#000000;stop-opacity:0"/>
	</linearGradient>
	<polygon class="st15" points="167.9,222.4 209.3,213.3 203.5,197.4 156.6,195.8 	"/>
	<polygon class="st0" points="171.7,231.2 141.5,239 203.3,256.7 218.6,239 	"/>
	
		<linearGradient id="SVGID_13_" gradientUnits="userSpaceOnUse" x1="174.6061" y1="2303.1743" x2="259.5916" y2="2428.5042" gradientTransform="matrix(1 0 0 1 -28.56 -2114.3701)">
		<stop  offset="1.000000e-02" style="stop-color:#000000"/>
		<stop  offset="8.000000e-02" style="stop-color:#000000;stop-opacity:0.69"/>
		<stop  offset="0.21" style="stop-color:#000000;stop-opacity:0.32"/>
		<stop  offset="1" style="stop-color:#000000;stop-opacity:0"/>
	</linearGradient>
	<polygon class="st16" points="171.7,231.2 141.5,239 203.3,256.7 218.6,239 	"/>
	<polygon class="st0" points="203.3,256.7 204.8,265.2 140,245.7 141.5,239 	"/>
	
		<linearGradient id="SVGID_14_" gradientUnits="userSpaceOnUse" x1="184.1419" y1="2319.1309" x2="213.8797" y2="2405.1006" gradientTransform="matrix(1 0 0 1 -28.56 -2114.3701)">
		<stop  offset="1.000000e-02" style="stop-color:#000000"/>
		<stop  offset="8.000000e-02" style="stop-color:#000000;stop-opacity:0.69"/>
		<stop  offset="0.21" style="stop-color:#000000;stop-opacity:0.32"/>
		<stop  offset="1" style="stop-color:#000000;stop-opacity:0"/>
	</linearGradient>
	<polygon class="st17" points="203.3,256.7 204.8,265.2 140,245.7 141.5,239 	"/>
	<path class="st0" d="M278.3,47.5v159.2c0,3.7-3,6.8-6.8,6.8c0,0,0,0,0,0h-0.7L92.3,193.6c-3.4-0.4-6.1-3.3-6.1-6.7V65.7
		c0-3.5,2.6-6.4,6.1-6.7l178.5-18.2c3.7-0.4,7.1,2.3,7.5,6C278.3,47.1,278.3,47.3,278.3,47.5z"/>
	
		<linearGradient id="SVGID_15_" gradientUnits="userSpaceOnUse" x1="385.5444" y1="2188.0134" x2="-93.1632" y2="2359.4976" gradientTransform="matrix(1 0 0 1 -28.56 -2114.3701)">
		<stop  offset="1.000000e-02" style="stop-color:#000000"/>
		<stop  offset="8.000000e-02" style="stop-color:#000000;stop-opacity:0.69"/>
		<stop  offset="0.21" style="stop-color:#000000;stop-opacity:0.32"/>
		<stop  offset="1" style="stop-color:#000000;stop-opacity:0"/>
	</linearGradient>
	<path class="st18" d="M278.3,47.5v159.2c0,3.7-3,6.8-6.8,6.8c0,0,0,0,0,0h-0.7L92.3,193.6c-3.4-0.4-6.1-3.3-6.1-6.7V65.7
		c0-3.5,2.6-6.4,6.1-6.7l178.5-18.2c3.7-0.4,7.1,2.3,7.5,6C278.3,47.1,278.3,47.3,278.3,47.5z"/>
	<path class="st0" d="M273.8,47.5v159.2c0,3.7-3,6.8-6.8,6.8c0,0,0,0,0,0h-0.7L87.8,193.6c-3.4-0.4-6.1-3.3-6.1-6.7V65.7
		c0-3.5,2.6-6.4,6.1-6.7l178.5-18.2c3.7-0.4,7,2.3,7.4,6c0,0,0,0,0,0C273.8,47.1,273.8,47.3,273.8,47.5z"/>
	
		<linearGradient id="SVGID_16_" gradientUnits="userSpaceOnUse" x1="195.5115" y1="2056.7434" x2="212.8935" y2="2417.6624" gradientTransform="matrix(1 0 0 1 -28.56 -2114.3701)">
		<stop  offset="1.000000e-02" style="stop-color:#000000"/>
		<stop  offset="8.000000e-02" style="stop-color:#000000;stop-opacity:0.69"/>
		<stop  offset="0.21" style="stop-color:#000000;stop-opacity:0.32"/>
		<stop  offset="1" style="stop-color:#000000;stop-opacity:0"/>
	</linearGradient>
	<polygon class="st19" points="90.7,176.6 90.7,65.7 259.7,52 259.7,185.8 	"/>
	
		<linearGradient id="SVGID_17_" gradientUnits="userSpaceOnUse" x1="169.1897" y1="2072.9026" x2="286.4215" y2="2439.6199" gradientTransform="matrix(1 0 0 1 -28.56 -2114.3701)">
		<stop  offset="1.000000e-02" style="stop-color:#000000"/>
		<stop  offset="8.000000e-02" style="stop-color:#000000;stop-opacity:0.69"/>
		<stop  offset="0.21" style="stop-color:#000000;stop-opacity:0.32"/>
		<stop  offset="1" style="stop-color:#000000;stop-opacity:0"/>
	</linearGradient>
	<polygon class="st20" points="237.5,129 135.8,129 135.8,80.4 237.5,75.8 	"/>
	
		<linearGradient id="SVGID_18_" gradientUnits="userSpaceOnUse" x1="176.5969" y1="2136.9961" x2="260.4325" y2="2428.387" gradientTransform="matrix(1 0 0 1 -28.56 -2114.3701)">
		<stop  offset="1.000000e-02" style="stop-color:#000000"/>
		<stop  offset="8.000000e-02" style="stop-color:#000000;stop-opacity:0.69"/>
		<stop  offset="0.21" style="stop-color:#000000;stop-opacity:0.32"/>
		<stop  offset="1" style="stop-color:#000000;stop-opacity:0"/>
	</linearGradient>
	<polygon class="st21" points="237.5,184.9 135.8,179.5 135.8,134 237.5,134 	"/>
	
		<linearGradient id="SVGID_19_" gradientUnits="userSpaceOnUse" x1="110.732" y1="2161.2205" x2="344.433" y2="2505.8833" gradientTransform="matrix(1 0 0 1 -28.56 -2114.3701)">
		<stop  offset="1.000000e-02" style="stop-color:#000000"/>
		<stop  offset="8.000000e-02" style="stop-color:#000000;stop-opacity:0.69"/>
		<stop  offset="0.21" style="stop-color:#000000;stop-opacity:0.32"/>
		<stop  offset="1" style="stop-color:#000000;stop-opacity:0"/>
	</linearGradient>
	<path class="st22" d="M273.8,186.8v20c0,3.7-3,6.8-6.8,6.8c0,0,0,0,0,0h-0.7L87.8,193.6c-3.4-0.4-6.1-3.3-6.1-6.7v-10.3
		L273.8,186.8z"/>
	<path class="st0" d="M123.6,50.1c-1.2-0.5-2.4-1-3.5-1.7c-4.3-2.4-0.8-3.6,0.7-6.5c1-2.1,0.6-4.5,0.1-6.7c-0.9-3.9-2.2-8-1.2-11.9
		c0.1-0.6,0.4-1.2,0.7-1.8c0.3-0.3,0.6-0.6,0.9-0.9c0.9-0.8,1.9-1.4,3.1-1.8c2.2-0.6,4.6-0.3,6.6,0.8c8.3,4.2,8.2,17.7,7.5,25.6
		c0,1.8-0.6,3.7-1.6,5.2c-1.6,2.2-3.2,1.4-5.2,1C128.8,51.1,126.3,51.1,123.6,50.1z"/>
	<path class="st5" d="M128.5,24.4c-0.7,0.9-1.8,1.4-2.9,1.5c-0.2,0-0.4,0-0.5-0.1c-0.2-0.2-0.3-0.4-0.3-0.6c0-0.4-0.1-1-0.2-1.6
		c0-0.6-0.1-1.3-0.2-1.8c-0.1-1.3-0.6-2.6-1.4-3.6c-0.2-0.2-0.4-0.4-0.6-0.6c-1.4-1.2,4.2-0.8,5-2.4c0.9,1.1,0.8,2.7,1.2,4
		c0.3,0.7,0.5,1.3,0.6,2C129.5,22.4,129.2,23.5,128.5,24.4z"/>
	<path class="st5" d="M120.1,16.2c-0.1,0.7,0,1.4,0.4,2.1c0.2,0.3,0.4,0.5,0.7,0.7c1.9,1.3,4.4,1.1,6.2-0.3c1.7-1.5,2.7-3.6,2.8-5.9
		c0.1-1.2-0.2-2.4-0.9-3.3c-0.9-0.9-2.1-1.2-3.4-0.9c-1.6,0.4-3.1,1.2-4.2,2.4C120.4,12.2,120.1,14.6,120.1,16.2z"/>
	<path class="st23" d="M104,59.4c-0.9,1.2-1.6,2.5-2.1,3.9c-2.8,6.9-4.6,14.1-5.4,21.5c2.3,0.3,4.6,0.3,6.9,0
		c0.2-5.2,1-10.4,2.4-15.5c0.2-1.1,0.6-2.1,1.2-3.1c1.1-1.4,2.6-2.5,4.3-3.2c3.7-1.8,7.6-3.3,11.6-4.4c1.7-0.5,3.4-0.9,5-1.5
		c1.4-0.4,2.7-1.1,3.9-2c2.1-1.7,3.6-5.5,0.9-7.4c-1.3-0.7-2.8-1.1-4.3-1.1l-4.6-0.4c-0.9-0.2-1.8,0.1-2.4,0.7
		c-3.4,2.7-7,5-10.6,7.4C108.5,55.9,105.8,57.3,104,59.4z"/>
	<path class="st5" d="M136.1,27.9c0,0.3,0,0.5,0.1,0.8c0.2,3.7,0.2,7.4-0.1,11.1c-0.1,2.3-0.4,6.6-2.8,7.8
		c-4.5,2.2-13.1,1.3-13.1,1.3c-1-0.2-2-0.1-3,0.1c-0.5,0.2-1,0.5-1.6,0.7c-2,0.6-4,0.6-6,0c-0.3,0-0.7-0.2-1-0.3
		c-0.7-0.7-0.8-1.8-0.2-2.5c0.6-0.7,1.5-1.2,2.4-1.3c2.5-0.8,5.2-0.9,7.7-0.3c0.3,0.1,0.7,0.2,1,0.3c0.4,0.1,0.8,0.1,1.2,0.1h3
		c3.5,0,6.8,0,7.3-4.1c0.2-1.5,0.2-3.1,0.1-4.6c-0.2-2.8-0.9-5.6-0.8-8.4c0-0.9,0.2-1.8,0.6-2.5c0.4-0.8,1.2-1.3,2.1-1.3
		c0.9,0.1,1.8,0.6,2.2,1.5C135.8,26.6,136,27.3,136.1,27.9z"/>
	<path class="st24" d="M126.7,14.4c0.2,0.8,0.2,1.7,0.2,2.6c0.6-0.5,0.6-1.9,1.3-1.8c0.5,0,0.7,0.7,0.5,1.1
		c-0.3,0.4-0.7,0.7-1.2,0.8c-0.1,1.8,1.3,3.1,2.5,4.2c1.3,1.3,2.2,2.9,2.6,4.7c0.5,2.3,0.6,4.6,0.5,6.9c0.6-0.5,1.5-0.2,2.4-0.2
		c2.5,0.1,4.7-1.6,5.3-4c0.5-2.4-0.6-4.9-2.7-6.1c-0.7-0.3-1.3-0.7-1.8-1.3c-0.5-0.8-0.2-2-0.2-3c0-2.3-1.6-4.3-3.8-4.8
		c0.4-0.8,0.7-1.7,0.8-2.6c0-1.2-0.5-2.4-1.4-3.2c-0.9-0.8-1.9-1.5-3-1.9c-1-0.6-2.2-0.8-3.3-0.6c-1.3,0.5-2.2,1.6-2.5,3
		c-0.6-0.3-1.4-0.1-1.9,0.4c-0.5,0.5-0.7,1.2-0.6,1.9c0,0.5,0.1,0.9,0.3,1.3c0.4-0.5,0.9-1,1.4-0.6c0.5,0.4,0.8,1.1,1.3,1.5
		c0.5,0.4,1.1,0.8,1.7,1.1C125.6,13.8,126.2,14.1,126.7,14.4z"/>
	<path class="st25" d="M294.2,137.6h-99c-4.2,0-7.6-3.4-7.6-7.6V93.5c0-4.1,3.2-7.4,7.3-7.6l99-4.6c4.2-0.2,7.7,3,7.9,7.2
		c0,0,0,0,0,0c0,0.1,0,0.3,0,0.4V130C301.8,134.2,298.4,137.6,294.2,137.6L294.2,137.6L294.2,137.6z"/>
	<path class="st25" d="M231.9,71.7l-70.8,3.5c-2.8,0.2-5.2-1.9-5.4-4.8c0-0.1,0-0.2,0-0.4V44.3c0-2.9,2.3-5.3,5.2-5.6l70.9-6.8
		c2.8-0.3,5.3,1.7,5.6,4.5c0,0.2,0,0.4,0,0.6V66C237.3,69.1,234.9,71.6,231.9,71.7z"/>
	<path class="st25" d="M119.5,147.5l-51.3-2.4c-3-0.1-5.3-2.6-5.3-5.6v-21c0-3,2.5-5.5,5.5-5.6l51.3-0.6c3.1,0,5.6,2.4,5.6,5.5
		c0,0,0,0,0,0V142c0,3.1-2.5,5.5-5.6,5.5c0,0,0,0,0,0H119.5z"/>
</g>
</svg>
